<svg xmlns="http://www.w3.org/2000/svg" viewBox="0 0 690 690" width="500" height="570"><defs><style>.cls-1{fill:#fff;}.cls-2{fill:#bca580;}.cls-3{fill:#ebd09f;}.cls-17,.cls-4,.cls-5,.cls-6,.cls-7{fill:none;}.cls-4,.cls-5{stroke:#000;}.cls-4,.cls-5,.cls-6,.cls-7{stroke-miterlimit:10;}.cls-4{stroke-width:4px;}.cls-5,.cls-7{stroke-width:3px;}.cls-6{stroke:#fff02a;stroke-width:111px;stroke-dasharray:14;}.cls-7{stroke:#b76e79;}.cls-8{fill:#fff5e8;}.cls-9{fill:#b76e79;}.cls-10{fill:#8e525b;}.cls-11{fill:#424249;}.cls-12{fill:#d00005;}.cls-13{fill:#0bb900;}.cls-14{fill:#f0f020;}.cls-15{opacity:0.51;}.cls-16{fill:#8c6b16;}</style></defs><title>teen-witch-tarrot</title><g id="Layer_1" data-name="Layer 1"><rect class="cls-1" x="0.5" y="0.5" width="345" height="544" rx="29.5"/><path class="cls-2" d="M840,79a29,29,0,0,1,29,29V593a29,29,0,0,1-29,29H554a29,29,0,0,1-29-29V108a29,29,0,0,1,29-29H840m0-1H554a30.09,30.09,0,0,0-30,30V593a30.09,30.09,0,0,0,30,30H840a30.09,30.09,0,0,0,30-30V108a30.09,30.09,0,0,0-30-30Z" transform="translate(-524 -78)"/><rect class="cls-3" x="31" y="461.22" width="284" height="48.78"/><rect class="cls-3" x="31" y="35" width="284" height="426.22"/><polygon class="cls-4" points="315 461.22 315 510 31 510 31 461.22 31 35 315 35 315 461.22"/><line class="cls-5" x1="315" y1="461.22" x2="31" y2="461.22"/><path d="M603.75,554.34a11.11,11.11,0,0,0-1.55-3.53c-.65-.76-.94-1-3.06-1h-2.3v16.91c0,3,.36,3.24,3.56,3.5v1.33H588.45v-1.33c3.06-.26,3.38-.47,3.38-3.5V549.77h-2.19c-2,0-2.59.32-3.28,1.18a13.68,13.68,0,0,0-1.47,3.42h-1.37c.25-2.62.5-5.43.57-7.16h1.08c.54.83,1,.9,2.06.9h14.39a2.38,2.38,0,0,0,2.09-.9h1c0,1.51.19,4.68.37,7Z" transform="translate(-524 -78)"/><path d="M627.4,565.39c-.18,1-1.19,5.11-1.51,6.12H607.21v-1.3c3.27-.32,3.49-.5,3.49-3.53V552.93c0-3-.44-3.27-2.88-3.49v-1.33h11.7c3.77,0,5,0,5.54-.07,0,.65.21,3.6.36,5.83l-1.41.18a9.07,9.07,0,0,0-1.54-3.35c-.65-.72-1.12-.93-3-.93h-2.34c-1.37,0-1.52.07-1.52,1.29v7.52h3.53c2,0,2.38-.53,2.92-3.09h1.4v8h-1.4c-.58-2.67-.87-3.1-3-3.1h-3.5v6.19c0,2.49.08,3.24,2.31,3.28h2.55c2,0,2.56-.25,3.35-1.23a16,16,0,0,0,2.2-3.6Z" transform="translate(-524 -78)"/><path d="M649.29,565.39c-.18,1-1.19,5.11-1.52,6.12H629.09v-1.3c3.28-.32,3.49-.5,3.49-3.53V552.93c0-3-.43-3.27-2.87-3.49v-1.33H641.4c3.78,0,5,0,5.55-.07,0,.65.21,3.6.36,5.83l-1.41.18a8.92,8.92,0,0,0-1.55-3.35c-.64-.72-1.11-.93-3-.93h-2.34c-1.36,0-1.51.07-1.51,1.29v7.52h3.53c2,0,2.38-.53,2.92-3.09h1.4v8H644c-.58-2.67-.87-3.1-3-3.1h-3.49v6.19c0,2.49.07,3.24,2.31,3.28h2.55c2,0,2.56-.25,3.35-1.23a15.62,15.62,0,0,0,2.19-3.6Z" transform="translate(-524 -78)"/><path d="M676.5,549.44c-2.19.29-2.88.76-3,2.38-.1,1.4-.21,2.63-.21,5.76V571.9h-2l-15-18V562a54,54,0,0,0,.18,5.58c.15,1.58.9,2.41,3.57,2.56v1.33h-8.93v-1.33c2-.18,2.95-.72,3.17-2.42a49.66,49.66,0,0,0,.21-5.72v-8.53a4.34,4.34,0,0,0-.75-2.92c-.65-.9-1.52-1-3-1.15v-1.33h7l13.72,15.95v-6.48c0-3.13,0-4.32-.15-5.65-.11-1.55-.68-2.31-3.67-2.49v-1.33h8.89Z" transform="translate(-524 -78)"/><path d="M719.48,549.44c-2.59.33-3.06.87-4.06,3.82-.94,2.77-3.64,11.3-5.91,18.64h-2c-1.84-5.18-3.89-10.51-5.94-15.91-1.87,5.44-3.67,10.69-5.37,15.91h-2.08c-1.44-5.07-3.75-12.52-5.76-18.89-.9-2.74-1.44-3.35-3.64-3.57v-1.33h10.87v1.33c-2.7.25-2.77.79-2.27,2.67,1.19,4.14,2.45,8.35,3.64,12.27,1.84-5.07,3.56-10.51,5.22-16.09h1.91c2,5.51,4,10.87,6,16.13,1.33-3.89,3.06-9.9,3.56-11.95s.15-2.78-2.95-3v-1.33h8.78Z" transform="translate(-524 -78)"/><path d="M720.46,571.51v-1.33c2.74-.26,3.06-.47,3.06-3.5V553c0-3-.36-3.31-3.06-3.53v-1.33h11.12v1.33c-2.7.25-3.06.51-3.06,3.53v13.71c0,3,.33,3.21,3.06,3.5v1.33Z" transform="translate(-524 -78)"/><path d="M754.55,554.34a11.11,11.11,0,0,0-1.55-3.53c-.65-.76-.94-1-3.06-1h-2.3v16.91c0,3,.36,3.24,3.56,3.5v1.33h-12v-1.33c3.06-.26,3.38-.47,3.38-3.5V549.77h-2.19c-2,0-2.59.32-3.28,1.18a13.68,13.68,0,0,0-1.47,3.42h-1.37c.25-2.62.5-5.43.57-7.16H736c.54.83,1,.9,2.06.9h14.39a2.38,2.38,0,0,0,2.09-.9h1c0,1.51.18,4.68.36,7Z" transform="translate(-524 -78)"/><path d="M780.83,565.32a51.24,51.24,0,0,1-2,5.79,30.52,30.52,0,0,1-6.62.94c-9.69,0-13.68-6.23-13.68-11.95,0-7.45,5.69-12.49,14.33-12.49a38,38,0,0,1,6.8.86c.18,1.69.43,4.36.68,5.94l-1.44.25c-.75-2.81-1.83-4.14-3.74-4.89a9.06,9.06,0,0,0-3.13-.51c-5.22,0-7.85,4.36-7.85,10,0,6.59,3.38,11.05,8.32,11.05,3,0,5-1.58,7-5.54Z" transform="translate(-524 -78)"/><path d="M809.73,549.44c-2.8.29-3.06.51-3.06,3.49v13.79c0,3,.29,3.2,3.06,3.46v1.33H798.61v-1.33c2.85-.36,3.06-.47,3.06-3.46V560H792v6.77c0,3,.33,3.17,3,3.46v1.33H783.89v-1.33c2.66-.29,3.06-.47,3.06-3.46V552.93c0-3-.33-3.27-3.06-3.49v-1.33H795v1.33c-2.74.25-3,.51-3,3.49v5.15h9.72v-5.15c0-3-.36-3.2-3.06-3.49v-1.33h11.12Z" transform="translate(-524 -78)"/></g><g id="Layer_6_copy" data-name="Layer 6 copy"><circle class="cls-6" cx="174" cy="207" r="75"/><rect x="116.5" y="169.5" width="116" height="75" rx="4"/><rect class="cls-7" x="116.5" y="169.5" width="116" height="75" rx="4"/><rect class="cls-8" x="123" y="176" width="104" height="62"/><path class="cls-9" d="M764,326a2,2,0,0,1-2,2H634a2,2,0,0,1-2-2h0a2,2,0,0,1,2-2H762a2,2,0,0,1,2,2Z" transform="translate(-524 -78)"/><rect class="cls-10" x="160.3" y="247" width="26.4" height="1"/></g><g id="Layer_4_copy" data-name="Layer 4 copy"><rect class="cls-11" x="127" y="186" width="57" height="22"/><path class="cls-11" d="M708,262.84v.81c0,.12,0,.23,0,.35H651c0-.12,0-.23,0-.35v-.81a1.84,1.84,0,0,1,1.84-1.84h53.32A1.84,1.84,0,0,1,708,262.84Z" transform="translate(-524 -78)"/><rect x="127" y="187.5" width="57" height="31.5"/><circle class="cls-12" cx="129.1" cy="185.4" r="0.6"/><circle class="cls-13" cx="133.9" cy="185.4" r="0.6"/><circle class="cls-14" cx="131.5" cy="185.4" r="0.6"/></g><g id="Layer_6" data-name="Layer 6"><rect class="cls-15" x="137" y="232" width="79" height="5"/><rect class="cls-15" x="123" y="176" width="104" height="2"/></g><g id="Layer_4" data-name="Layer 4"><path class="cls-16" d="M652.21,452.19c7.81,7.82,19.21,11.91,24.31,22.29.85,1.73,3.44.21,2.59-1.51-2.59-5.28-6.88-9.26-11.53-12.73-4.46-3.32-9.29-6.21-13.25-10.17a1.5,1.5,0,0,0-2.12,2.12Z" transform="translate(-524 -78)"/><path class="cls-16" d="M679.65,504a283.59,283.59,0,0,0-.33-30.3c-.13-1.92-3.13-1.93-3,0a283.59,283.59,0,0,1,.33,30.3c-.08,1.93,2.92,1.93,3,0Z" transform="translate(-524 -78)"/><path class="cls-16" d="M656.55,452.35c-5.11-4.05-10.24-8.15-15.71-11.72a27,27,0,0,0-3.84-2.19,3.55,3.55,0,0,0-3.19-.28,2.34,2.34,0,0,0-.75,2.9,14.61,14.61,0,0,0,1.54,3,103.61,103.61,0,0,0,6.19,8.43c2.67,3.4,5.39,6.75,8.1,10.1l1,1.27a1.51,1.51,0,0,0,2.12,0,1.54,1.54,0,0,0,0-2.12c-2.64-3.29-5.31-6.56-7.93-9.87l-1.82-2.31-.45-.58c-.15-.19.23.29,0,0l-.24-.31c-.27-.36-.54-.72-.82-1.07-1-1.28-1.91-2.56-2.8-3.88a24.73,24.73,0,0,1-1.8-2.95c0-.09-.09-.19-.14-.28s0-.09,0-.13c-.11-.23.16.42.07.18s-.12-.31-.16-.47,0-.14,0-.2c-.08-.3,0,.47,0,.18,0-.05,0-.11,0-.16s-.11.51,0,.24a1,1,0,0,1-.52.68c.22-.13-.43.16-.23.09s-.37,0-.24,0H635c.27,0-.51-.1-.15,0l.49.13.3.12c.26.09-.32-.15-.17-.07l.19.08.77.38c.66.35,1.31.74,1.94,1.13,1.91,1.2,3.75,2.5,5.57,3.83,2.78,2,5.38,4,8,6.07.82.65,1.65,1.29,2.47,2a1.55,1.55,0,0,0,2.12,0,1.52,1.52,0,0,0,0-2.13Z" transform="translate(-524 -78)"/><path class="cls-16" d="M642.74,451.49c-4.62-4.41-8-9.82-11.14-15.3-2.47-4.25-4.9-9.1-8.92-12.11a10.12,10.12,0,0,0-6.53-2.06c-1.93.08-1.94,3.08,0,3,5.58-.23,8.76,5.71,11.21,9.85,3.92,6.62,7.64,13.37,13.26,18.74,1.4,1.33,3.52-.79,2.12-2.12Z" transform="translate(-524 -78)"/><path class="cls-16" d="M628.51,447.87a185.55,185.55,0,0,0-11.45-24.7c-.94-1.69-3.53-.18-2.59,1.51a180,180,0,0,1,11.15,24c.67,1.79,3.57,1,2.89-.8Z" transform="translate(-524 -78)"/><path class="cls-16" d="M625.77,448.9c1.8,4.62,3.26,9.37,5.37,13.86,1.87,4,4.46,8.14,8.6,10,1.75.79,3.27-1.79,1.52-2.6-3.8-1.73-6-5.61-7.66-9.24-1.93-4.17-3.27-8.58-4.94-12.86-.69-1.77-3.59-1-2.89.8Z" transform="translate(-524 -78)"/><path class="cls-16" d="M635.65,468.9a85.32,85.32,0,0,0,17.57,13c.28.14.55.3.82.46a3.13,3.13,0,0,1,.3.2c.23.15-.26-.27,0,0,.08.08.15.17.23.24s-.21-.3,0,0,.06.15,0,0c0,.13.09.25.12.38s0,.24.07.37,0-.23,0-.12l0,.3c0,.38,0,.76,0,1.14,0,1.18,0,2.36,0,3.54-.06,5.41.12,10.82.46,16.22.12,1.92,3.12,1.93,3,0-.31-5.07-.5-10.15-.47-15.23a36.91,36.91,0,0,0-.13-6.65,4.38,4.38,0,0,0-2.22-3c-1.66-1-3.43-1.82-5.08-2.87a86.6,86.6,0,0,1-12.59-10.09c-1.41-1.31-3.54.81-2.12,2.12Z" transform="translate(-524 -78)"/><path class="cls-16" d="M633.05,417.63a12.83,12.83,0,0,0-7-1.78,1.52,1.52,0,0,0-1.06,2.56c2.2,2.56,3.31,6,4.27,9.2,1.13,3.72,2,7.52,3.1,11.25.55,1.85,3.45,1.06,2.9-.79-1.18-3.94-2.07-8-3.3-11.88-1.09-3.51-2.43-7.08-4.85-9.9L626,418.85a9.9,9.9,0,0,1,5.54,1.37,1.5,1.5,0,0,0,1.51-2.59Z" transform="translate(-524 -78)"/><path class="cls-16" d="M641,441.5c-.19-8.36-3-16.09-7.28-23.19-1-1.64-3.6-.14-2.59,1.52,4,6.65,6.69,13.83,6.87,21.67,0,1.93,3,1.93,3,0Z" transform="translate(-524 -78)"/><path class="cls-16" d="M645,431.1c-1.39-6.33-3.84-13.49-10.67-15.64-1.85-.58-2.64,2.31-.8,2.89,2.93.93,4.85,3.21,6.19,5.93a33.68,33.68,0,0,1,2.38,7.62c.42,1.88,3.31,1.09,2.9-.8Z" transform="translate(-524 -78)"/><path class="cls-16" d="M635.26,421.57v-4.72a1.51,1.51,0,0,0-1.5-1.5,1.53,1.53,0,0,0-1.5,1.5v4.72a1.5,1.5,0,0,0,3,0Z" transform="translate(-524 -78)"/><path class="cls-16" d="M642,431.5a62.38,62.38,0,0,0,1.85,14.91,1.5,1.5,0,0,0,2.89-.8A59.32,59.32,0,0,1,645,431.5c-.06-1.93-3.06-1.93-3,0Z" transform="translate(-524 -78)"/><path class="cls-16" d="M646.48,425.88c-1.87,3.24-3.84,6.46-4.43,10.22A1.55,1.55,0,0,0,643.1,438,1.53,1.53,0,0,0,645,436.9a16.52,16.52,0,0,1,.73-2.93,19.86,19.86,0,0,1,1.08-2.5c.7-1.4,1.53-2.72,2.31-4.07a1.54,1.54,0,0,0-.54-2.06,1.52,1.52,0,0,0-2,.54Z" transform="translate(-524 -78)"/><path class="cls-16" d="M646.44,426.66a88.65,88.65,0,0,0,4.92,25.69c.63,1.81,3.53,1,2.89-.8a85.94,85.94,0,0,1-4.81-24.89c-.09-1.92-3.09-1.93-3,0Z" transform="translate(-524 -78)"/><path class="cls-16" d="M740.84,450.07c-4,4-8.78,6.85-13.25,10.17-4.65,3.47-8.93,7.45-11.52,12.73-.85,1.72,1.73,3.24,2.59,1.51,5.09-10.38,16.49-14.47,24.3-22.29a1.5,1.5,0,0,0-2.12-2.12Z" transform="translate(-524 -78)"/><path class="cls-16" d="M715.86,473.74a286.23,286.23,0,0,0-.34,30.3c.08,1.93,3.08,1.94,3,0a286.23,286.23,0,0,1,.34-30.3c.12-1.93-2.88-1.92-3,0Z" transform="translate(-524 -78)"/><path class="cls-16" d="M745.26,463.82c4-4.83,7.88-9.67,11.62-14.65,1.12-1.5,2.22-3,3.25-4.56a19.4,19.4,0,0,0,1.66-2.9,3,3,0,0,0,.17-2.82,2.29,2.29,0,0,0-2.79-.71,14.38,14.38,0,0,0-2.86,1.42c-1.35.81-2.65,1.69-3.94,2.58-4,2.76-7.82,5.68-11.67,8.59l-1.77,1.35a1.54,1.54,0,0,0-.54,2.05,1.51,1.51,0,0,0,2.05.54c4-3,7.92-6,12-8.9a48.34,48.34,0,0,1,7.12-4.56l.28-.12c.22-.11-.27.1-.21.08l.15-.06a3.73,3.73,0,0,1,.44-.14l.19-.05c.28-.08-.45.05-.21,0h.14s-.49-.11-.25,0-.44-.22-.24-.1-.37-.3-.26-.2.14.28-.18-.24c.13.21-.13-.35-.1-.26.08.26,0-.24,0-.26s0,.1,0,.14c0,.28.11-.45,0-.2s-.07.27-.11.41l-.09.22c-.07.22.19-.41.08-.19l-.06.14c-.09.2-.2.4-.3.6-.27.5-.56,1-.86,1.45-.89,1.41-1.86,2.76-2.85,4.1-.65.89-1.32,1.78-2,2.66l-.55.71-.15.2s.14-.19,0-.06l-.35.45-1.23,1.58q-3,3.76-6,7.47l-1.72,2.12a1.5,1.5,0,0,0,2.12,2.12Z" transform="translate(-524 -78)"/><path class="cls-16" d="M779,422c-5.06-.49-9,4.34-11.64,8-3.66,4.95-6.49,10.44-9.87,15.57-1.32,2-2.9,4.38-4.79,5.71-1.57,1.1-.07,3.71,1.52,2.59,4.1-2.89,6.67-8,9.2-12.15,2.92-4.85,5.74-10.13,9.87-14.08,1.62-1.53,3.51-2.8,5.71-2.59,1.92.19,1.9-2.81,0-3Z" transform="translate(-524 -78)"/><path class="cls-16" d="M778.12,423.17a184.36,184.36,0,0,0-11.46,24.7c-.68,1.81,2.22,2.59,2.9.8a178.77,178.77,0,0,1,11.15-24c.94-1.69-1.65-3.2-2.59-1.51Z" transform="translate(-524 -78)"/><path class="cls-16" d="M766.66,447.75l-11.46,20a1.51,1.51,0,0,0,2.6,1.52q5.72-10,11.45-20a1.5,1.5,0,0,0-2.59-1.51Z" transform="translate(-524 -78)"/><path class="cls-16" d="M755.44,467.44a40.39,40.39,0,0,1-6.78,6.61,37.53,37.53,0,0,1-9.55,5.63,1.53,1.53,0,0,0-1.05,1.84,1.51,1.51,0,0,0,1.84,1.05,41.44,41.44,0,0,0,10.44-6.06,40.62,40.62,0,0,0,7.22-6.95,1.55,1.55,0,0,0,0-2.12,1.51,1.51,0,0,0-2.12,0Z" transform="translate(-524 -78)"/><path class="cls-16" d="M738,481.5q-.54,11.58-1.09,23.16c-.09,1.93,2.91,1.93,3,0q.55-11.58,1.09-23.16c.09-1.93-2.91-1.93-3,0Z" transform="translate(-524 -78)"/><path class="cls-16" d="M762.86,438.86c2.21-6.78,2.8-14.68,7.38-20.45a1.52,1.52,0,0,0-1.06-2.56,12.87,12.87,0,0,0-7.06,1.78,1.5,1.5,0,0,0,1.52,2.59,9.86,9.86,0,0,1,5.54-1.37l-1.06-2.56c-5,6.28-5.75,14.39-8.15,21.78-.6,1.84,2.29,2.62,2.89.79Z" transform="translate(-524 -78)"/><path class="cls-16" d="M761.31,418.67l-7.26,22.43c-.59,1.84,2.3,2.63,2.9.8l7.25-22.43c.59-1.84-2.3-2.63-2.89-.8Z" transform="translate(-524 -78)"/><path class="cls-16" d="M760.89,415.46c-3,.65-5.32,3-6.89,5.54a26.22,26.22,0,0,0-3.35,9.72,1.55,1.55,0,0,0,1.05,1.85,1.51,1.51,0,0,0,1.84-1.05,24.62,24.62,0,0,1,2.84-8.65c1.24-2.14,3-4,5.31-4.52a1.52,1.52,0,0,0,1-1.84,1.53,1.53,0,0,0-1.85-1.05Z" transform="translate(-524 -78)"/><path class="cls-16" d="M759.91,416.85v4.72a1.5,1.5,0,1,0,3,0v-4.72a1.51,1.51,0,0,0-1.5-1.5,1.53,1.53,0,0,0-1.5,1.5Z" transform="translate(-524 -78)"/><path class="cls-16" d="M751.32,446.41a64.21,64.21,0,0,0,2.39-15.27c.07-1.93-2.93-1.93-3,0a60.65,60.65,0,0,1-2.28,14.47,1.5,1.5,0,0,0,2.89.8Z" transform="translate(-524 -78)"/><path class="cls-16" d="M753,437.1a47.4,47.4,0,0,0-1.16-4.7,31.39,31.39,0,0,0-3.09-6.52,1.54,1.54,0,0,0-2.06-.54,1.52,1.52,0,0,0-.53,2.06,33.23,33.23,0,0,1,1.83,3.37c.1.23.21.45.31.68s0,.1,0,0l.06.15.14.36c.18.45.34.9.49,1.36.48,1.5.78,3,1.11,4.57a1.5,1.5,0,0,0,2.9-.8Z" transform="translate(-524 -78)"/><path class="cls-16" d="M743.82,452.35a89,89,0,0,0,4.92-25.69c.08-1.93-2.92-1.92-3,0a86,86,0,0,1-4.82,24.89c-.64,1.83,2.26,2.61,2.9.8Z" transform="translate(-524 -78)"/><path class="cls-16" d="M717.67,505.54h21.05v-3H717.67a1.5,1.5,0,0,0,0,3h21.05a1.5,1.5,0,0,0,0-3H717.67A1.5,1.5,0,0,0,717.67,505.54Z" transform="translate(-524 -78)"/><path class="cls-16" d="M657.09,506.33l20.62.59v-3l-18-.52-2.6-.07c-1.93-.06-1.93,2.94,0,3l18,.52,2.59.07c1.93.06,1.93-2.94,0-3l-20.62-.59C655.16,503.27,655.16,506.27,657.09,506.33Z" transform="translate(-524 -78)"/></g><g id="Layer_7" data-name="Layer 7"><path class="cls-17" d="M621,241" transform="translate(-524 -78)"/><path d="M689.79,139.69v-.78c1.43-.19,1.36-.52,1-1.19l-2.17-3.7c-1,1.49-1.88,2.86-2.26,3.59s-.38,1.09,1.09,1.3v.78h-5.23v-.78a3.35,3.35,0,0,0,2.54-1.17c.76-.93,2.1-2.77,3.3-4.58-1-1.66-1.87-3.13-2.94-4.85-.57-.94-1-1.32-2.6-1.49V126h6.55v.78c-1.26.15-1.33.38-1,1s1,1.78,1.87,3.17c.63-.86,1.4-2.1,1.91-3s.23-1-1.07-1.18V126h5.08v.78a3.42,3.42,0,0,0-2.8,1.39c-.71.94-1.53,2.12-2.56,3.56,1.22,1.94,2.19,3.55,3.43,5.42a2.79,2.79,0,0,0,2.72,1.72v.78Z" transform="translate(-524 -78)"/><path d="M704.3,139.69v-.78c1.43-.19,1.37-.52,1-1.19-.21-.36-.65-1.1-2.16-3.7-1,1.49-1.89,2.86-2.27,3.59s-.38,1.09,1.09,1.3v.78h-5.23v-.78a3.35,3.35,0,0,0,2.54-1.17c.76-.93,2.1-2.77,3.3-4.58-1-1.66-1.87-3.13-2.94-4.85-.57-.94-1-1.32-2.6-1.49V126h6.55v.78c-1.26.15-1.33.38-1,1s1,1.78,1.87,3.17c.63-.86,1.4-2.1,1.91-3s.23-1-1.07-1.18V126h5.08v.78a3.42,3.42,0,0,0-2.8,1.39c-.71.94-1.53,2.12-2.56,3.56,1.22,1.94,2.19,3.55,3.43,5.42a2.79,2.79,0,0,0,2.73,1.72v.78Z" transform="translate(-524 -78)"/></g></svg>